<svg xmlns="http://www.w3.org/2000/svg" id="Layer_1" viewBox="0 0 512 512"><path clip-rule="evenodd" d="m134.36 106.48h63.63v-63.63zm277.71 229.17-30.36-11.63 5.38 33.79zm61.42-143.92-53.43 134.13-38.16-14.62 51.62-134.82zm-25.32 6.38c-3.09-1.19-6.56.36-7.74 3.45l-32.74 85.49c-1.19 3.1.36 6.56 3.46 7.75.7.27 1.43.4 2.14.4 2.41 0 4.69-1.47 5.6-3.86l32.74-85.49c1.19-3.08-.36-6.55-3.46-7.74zm-10.35-32.89 40.04 15.33 4.01-10.49c1.07-2.79.98-5.84-.25-8.58-1.22-2.76-3.43-4.86-6.22-5.92l-19.06-7.3c-2.79-1.07-5.84-.98-8.59.25s-4.85 3.43-5.92 6.22zm-295.63 292.26c4.27 5.5 5.05 12.95 2.16 19.18 2.83 1.63 6.34 1.22 8.42-1.14 2.39-2.72 2.12-6.88-.6-9.27zm-15.09 4.82c-1.76.11-3.36.9-4.51 2.21l-1.42 1.61c-1.15 1.31-1.72 3-1.61 4.76s.9 3.36 2.2 4.51c1.31 1.15 2.99 1.72 4.76 1.6 1.76-.11 3.36-.89 4.51-2.2l1.42-1.62c2.39-2.72 2.12-6.88-.6-9.27-1.2-1.05-2.71-1.62-4.31-1.62-.14.01-.29.01-.44.02zm-15.71-23.12-9.2 10.48c-1.14 1.31-1.72 3-1.6 4.75.11 1.76.89 3.36 2.2 4.51 2.72 2.39 6.88 2.12 9.27-.6l9.21-10.48c1.15-1.31 1.72-3 1.61-4.76s-.89-3.36-2.2-4.51-3.01-1.72-4.76-1.6c-1.77.12-3.38.9-4.53 2.21zm-15.08-20.91c.12-.13.22-.28.33-.41l.02.02c1.15-1.31 2.75-2.09 4.51-2.21 1.75-.11 3.45.46 4.76 1.6 1.31 1.15 2.09 2.75 2.2 4.51s-.46 3.45-1.6 4.76l-4.14 4.71-9.2 10.48c-2.39 2.72-6.55 2.99-9.27.6s-2.99-6.55-.6-9.27zm-18.88-16.59-13.35 15.19c-2.39 2.72-2.12 6.88.6 9.27s6.88 2.12 9.27-.6l13.35-15.19c1.15-1.31 1.72-3 1.6-4.76-.11-1.76-.89-3.36-2.2-4.51-1.2-1.05-2.72-1.62-4.32-1.62-.15 0-.29 0-.44.01-1.76.12-3.36.91-4.51 2.21zm-41.66-10.59 41.6-68.9-10.16-6.13-41.6 68.9zm182.17 32.58c1.31 1.15 2.09 2.75 2.2 4.51s-.45 3.45-1.61 4.75c-2.39 2.72-6.55 2.99-9.27.6l-35.23-30.96c-2.49-2.19-6.28-1.94-8.47.55-2.18 2.49-1.94 6.28.55 8.47l30.8 27.07s0 .01.01.01c1.31 1.15 2.09 2.75 2.2 4.51s-.45 3.45-1.6 4.75c-1.15 1.31-2.75 2.09-4.51 2.21-1.76.11-3.45-.46-4.76-1.61l-5.64-4.95-26.15-22.98c-2.49-2.19-6.28-1.94-8.47.55s-1.94 6.28.55 8.47l26.15 22.98c1.31 1.15 2.09 2.75 2.21 4.51.11 1.76-.46 3.45-1.61 4.75-1.15 1.31-2.75 2.09-4.51 2.21-1.76.11-3.45-.46-4.76-1.6l-5.93-5.21s0 0 0-.01l-10.67-9.37c-2.49-2.18-6.28-1.94-8.47.55-1.75 1.99-1.94 4.82-.67 6.99-.18-.16-.33-.34-.51-.5-1.93-1.7-4.16-2.94-6.55-3.71 1.25-2.74 1.81-5.77 1.6-8.87-.32-4.96-2.54-9.49-6.26-12.75-2.51-2.2-5.51-3.64-8.72-4.25.23-1.4.33-2.84.23-4.3-.32-4.96-2.54-9.49-6.26-12.75-3.63-3.19-8.26-4.8-13.1-4.57-.56-4.51-2.7-8.6-6.13-11.62-3.71-3.26-8.49-4.88-13.45-4.57-4.96.32-9.49 2.54-12.75 6.26l-.07.08c-3.64-3.33-8.83-6.44-15.06-8.53l29.91-49.53c8.07 4.68 16.21 5.82 23.3 5.82 3.79 0 7.29-.33 10.32-.61.53-.05 1.1-.1 1.69-.15-13.93 10.9-12.11 22.99-10.64 32.74 1.06 7.02 1.98 13.09-2.02 19.32-1 1.56-1.23 3.48-.62 5.23.61 1.74 1.99 3.11 3.74 3.7 7.49 2.53 15.94.78 23.19-4.79 8.11-6.25 12.98-15.91 12.39-24.61-.17-2.52 1.36-6.63 3.4-7.83.34-.2 1.24-.73 3.42.56zm24.93-32.99-24.13-57.06c-16.29 5.31-31.34 1.75-43.67-1.17-10.05-2.38-18.74-4.44-25.28-1.3-6.91 4.54-12 9.01-16.51 12.96-2.45 2.15-4.77 4.18-7.02 5.89-8.81 6.69-7.91 12.7-6.53 21.79.82 5.42 1.77 11.75.15 18.46 2.2-.77 3.98-1.97 4.95-2.72 4.87-3.75 8.06-9.63 7.75-14.29-.42-6.29 2.68-15.08 9.26-18.97 2.87-1.7 8.82-3.83 16.35 1.01.25.16.49.34.72.54l62.32 54.76c6.38-3.22 8.09-5.95 10.02-9.05 2.58-4.16 5.26-7.73 11.62-10.85zm25.64-.65-10.93 4.62-31.34-74.13 10.93-4.62zm-64.52-271.55c3.32 0 6-2.69 6-6v-78.11h167.96c8.29 0 15.03 6.74 15.03 15.03v199.35l-24.43 63.81c-.37.97-.49 2.03-.32 3.09l8.73 54.86c.34 2.16 1.84 3.97 3.9 4.7.66.24 1.34.35 2.02.35 1.45 0 2.87-.52 3.98-1.51l6.11-5.42v19.13c0 8.29-6.74 15.03-15.03 15.03h-108.8l6.53-2.76c4.72-2 6.94-7.46 4.94-12.19l-4.04-9.57h90.97c3.31 0 6-2.69 6-6s-2.69-6-6-6h-93.35c-.88 0-1.71.19-2.47.53l-24.54-58.07c-2-4.72-7.47-6.94-12.19-4.95l-15.91 6.73c-4.66 1.97-6.87 7.33-5.01 12.01-12.7 3.82-24.63 1-36.22-1.75-11.97-2.84-23.27-5.51-33.75-.19-.2.1-.38.21-.57.33-4.75 3.1-8.73 6.18-12.18 9.04-1.69-.72-3.53-1.11-5.46-1.27v-210.2zm-49.97 53.25c-3.31 0-6 2.69-6 6s2.69 6 6 6h209.59c3.32 0 6-2.69 6-6 0-3.32-2.69-6-6-6zm0 40.85c-3.31 0-6 2.68-6 6 0 3.31 2.69 6 6 6h209.59c3.32 0 6-2.69 6-6 0-3.32-2.69-6-6-6zm0 40.84c-3.31 0-6 2.69-6 6s2.69 6 6 6h209.59c3.32 0 6-2.69 6-6s-2.69-6-6-6zm157.62 79.82-20.19-20.19c-2.35-2.34-6.15-2.34-8.49 0s-2.34 6.14 0 8.48l24.44 24.44c1.12 1.12 2.65 1.76 4.24 1.76s3.12-.63 4.24-1.76l42.86-42.86c2.34-2.34 2.34-6.15 0-8.49s-6.14-2.34-8.49 0zm3.19-218.47c3.32 0 6-2.69 6-6 0-3.32-2.68-6-6-6h-71.67c-3.31 0-6 2.68-6 6 0 3.31 2.69 6 6 6zm-71.67-37.04h117.45c3.31 0 6-2.69 6-6s-2.69-6-6-6h-117.45c-3.31 0-6 2.69-6 6s2.69 6 6 6z" fill-rule="evenodd"></path></svg>