<svg xmlns="http://www.w3.org/2000/svg" width="2132" height="2439" viewBox="0 0 2132 2439" fill="none"><g clip-path="url(#clip0_247_14)"><path d="M1394.39 665.289H2132.44V576.767H1394.39V665.289Z" fill="#F9F9F9"></path><path d="M1394.39 488.65H2132.44V400.128H1394.39V488.65Z" fill="#F6F6F6"></path><path d="M1394.39 312.011H2132.44V223.489H1394.39V312.011Z" fill="#F3F3F3"></path><path d="M1394.39 135.371H2132.44V46.8499H1394.39V135.371Z" fill="#F1F1F1"></path><path d="M1394.39 576.766V665.288H1302.13L1256.13 665.292C1255.39 665.386 1254.65 665.436 1253.91 665.44C1253.17 665.477 1252.4 665.301 1251.71 665.492C1250.31 665.76 1248.82 665.52 1247.49 665.905C1246.8 666.011 1246.11 666.07 1245.41 666.083C1244.74 666.229 1244.09 666.42 1243.42 666.515C1242.04 666.568 1240.8 667.124 1239.47 667.311C1238.78 667.337 1238.18 667.662 1237.54 667.843C1236.9 668.042 1236.25 668.177 1235.59 668.299C1234.98 668.583 1234.36 668.82 1233.73 669.01C1233.09 669.194 1232.42 669.311 1231.84 669.661C1231.23 669.941 1230.61 670.174 1229.96 670.365C1229.63 670.428 1229.33 670.587 1229.04 670.763C1228.74 670.923 1228.44 671.073 1228.14 671.21C1227.54 671.525 1226.85 671.634 1226.27 671.996C1225.7 672.355 1225.1 672.672 1224.48 672.948C1224.17 673.1 1223.83 673.182 1223.54 673.361C1223.26 673.561 1222.97 673.751 1222.68 673.928C1222.1 674.286 1221.49 674.601 1220.86 674.879C1220.29 675.283 1219.74 675.702 1219.15 676.05C1218.56 676.408 1217.9 676.676 1217.4 677.175C1208.19 683.44 1200.25 692.279 1195.25 701.814C1194.97 702.427 1194.65 703.017 1194.28 703.587C1193.93 704.164 1193.81 704.838 1193.49 705.428C1193.35 705.73 1193.2 706.026 1193.04 706.321L1192.79 706.756C1192.73 706.912 1192.69 707.077 1192.64 707.234C1192.45 707.87 1192.21 708.485 1191.92 709.085C1191.57 709.66 1191.46 710.321 1191.27 710.951C1191.07 711.579 1190.83 712.193 1190.55 712.793C1190.43 713.447 1190.29 714.088 1190.09 714.717C1189.89 715.345 1189.58 715.943 1189.55 716.62C1188.36 721.771 1187.62 727.102 1187.51 733.074H1097.85C1097.96 720.118 1099.55 707.629 1102.48 695.507C1102.73 693.959 1103.27 692.492 1103.71 690.998C1104.15 689.505 1104.55 688.002 1104.94 686.49C1105.5 685.032 1106.02 683.566 1106.51 682.089C1107 680.61 1107.42 679.104 1108.1 677.692C1108.7 676.254 1109.28 674.803 1109.82 673.339L1110.23 672.24L1110.75 671.186L1111.75 669.064C1112.44 667.658 1112.95 666.172 1113.7 664.791C1114.46 663.416 1115.2 662.028 1115.9 660.624C1127.64 638.417 1145.34 618.737 1166.39 604.38C1187.5 590.015 1211.46 580.943 1236.76 578.017C1239.89 577.419 1243.15 577.502 1246.35 577.126C1247.94 576.883 1249.59 577.02 1251.21 576.955C1252.84 576.926 1254.47 576.863 1256.1 576.768L1302.14 576.764H1394.39V576.766Z" fill="#F9F9F9"></path><path d="M1394.39 400.127V488.648H1302.13L1256.06 488.652L1248.52 488.88C1246.01 488.971 1243.48 488.871 1241 489.167C1236.02 489.649 1230.99 489.723 1226.07 490.535C1186.48 495.13 1148.47 509.481 1115.6 531.916C1082.76 554.326 1055.35 584.8 1036.9 619.618L1033.48 626.168C1032.33 628.349 1031.44 630.644 1030.38 632.863L1028.83 636.21L1028.04 637.88L1027.37 639.595L1024.65 646.44C1023.65 648.688 1022.93 651.036 1022.14 653.359L1019.72 660.31L1017.72 667.39C1017.04 669.747 1016.27 672.079 1015.81 674.493C1011.15 693.553 1008.71 713.172 1008.6 733.077H918.939C919.046 706.189 922.336 679.411 928.734 653.378C929.412 650.093 930.418 646.893 931.339 643.67L934.109 634.005L937.382 624.493C938.463 621.319 939.497 618.128 940.819 615.041L944.548 605.695L945.482 603.358L946.537 601.072L948.639 596.496C950.071 593.461 951.351 590.354 952.894 587.37L957.539 578.428C982.736 530.941 1019.9 489.625 1064.59 459.123C1109.27 428.58 1161.39 408.925 1215.34 402.652C1222.05 401.628 1228.86 401.394 1235.63 400.807C1239.01 400.456 1242.42 400.518 1245.82 400.401L1256.02 400.132L1302.13 400.128L1394.39 400.127Z" fill="#F6F6F6"></path><path d="M1394.39 223.488V312.01H1302.13L1255.99 312.013L1243.13 312.321C1238.85 312.464 1234.56 312.443 1230.28 312.845C1221.73 313.538 1213.16 313.928 1204.65 315.165C1136.41 323.107 1070.24 348.043 1013.81 386.656C957.321 425.211 910.454 477.323 878.542 537.42L872.673 548.745C870.734 552.529 869.073 556.446 867.268 560.293L864.62 566.093L863.299 568.995L862.103 571.948L857.372 583.787C855.728 587.708 854.388 591.741 853.01 595.76L848.891 607.819L845.353 620.058C844.187 624.142 842.954 628.208 842.061 632.358C833.933 665.329 829.793 699.235 829.689 733.074H740.032C740.132 692.253 745.126 651.187 754.99 611.245C756.099 606.223 757.565 601.289 758.973 596.34L763.28 581.516L768.25 566.895C769.924 562.028 771.573 557.151 773.54 552.39L779.278 538.05L780.738 534.475L782.325 530.957L785.523 523.928C787.7 519.264 789.748 514.533 792.083 509.947L799.179 496.23C837.835 423.462 894.457 360.508 962.792 313.861C966.988 310.84 971.382 308.1 975.749 305.324C980.124 302.558 984.489 299.776 988.902 297.071L1002.4 289.37L1009.18 285.558C1011.45 284.311 1013.78 283.173 1016.08 281.984L1029.98 274.976C1034.62 272.657 1039.41 270.643 1044.13 268.49L1051.25 265.331C1053.62 264.267 1056 263.235 1058.43 262.314L1072.96 256.649C1077.78 254.709 1082.71 253.064 1087.65 251.418L1102.45 246.51L1117.46 242.248C1122.48 240.864 1127.47 239.402 1132.56 238.307C1142.7 235.981 1152.82 233.548 1163.09 231.893C1168.21 230.998 1173.33 230.07 1178.46 229.258L1193.91 227.285C1204.21 225.832 1214.57 225.286 1224.91 224.487C1230.09 224.031 1235.25 224.013 1240.43 223.844L1255.94 223.496L1302.13 223.492H1394.39V223.488Z" fill="#F3F3F3"></path><path d="M1394.39 46.8497V135.371H1302.13L1255.92 135.375L1237.75 135.762C1231.69 135.959 1225.64 136.014 1219.57 136.524C1207.45 137.43 1195.32 138.132 1183.24 139.798L1165.11 142.131C1159.09 143.078 1153.08 144.151 1147.07 145.207C1135.03 147.18 1123.14 149.986 1111.24 152.739C1105.28 154.048 1099.41 155.736 1093.52 157.361C1087.64 159.003 1081.76 160.659 1075.9 162.382L1058.51 168.128C1052.72 170.067 1046.94 172.016 1041.27 174.273L1024.23 180.927C1021.38 182.02 1018.58 183.225 1015.8 184.466L1007.44 188.167C1001.89 190.687 996.281 193.079 990.831 195.788L974.525 204.003C971.823 205.4 969.092 206.747 966.427 208.207L958.475 212.665L942.645 221.714C937.465 224.879 932.339 228.131 927.212 231.379C922.09 234.638 916.952 237.872 912.02 241.394C831.889 296.097 765.56 369.843 720.189 455.221L711.871 471.322C709.143 476.709 706.708 482.247 704.162 487.725L700.416 495.978L698.561 500.112L696.84 504.303L690.103 521.134C687.815 526.73 685.857 532.447 683.889 538.16L678.073 555.33L672.998 572.726C671.346 578.537 669.651 584.336 668.326 590.225C656.732 637.106 650.888 685.297 650.792 733.071H561.135C561.227 678.315 567.923 622.962 581.257 569.112C582.8 562.353 584.724 555.683 586.619 549.007C588.522 542.333 590.467 535.669 592.466 529.026C594.641 522.437 596.865 515.859 599.132 509.297C601.397 502.734 603.666 496.173 606.275 489.739C608.81 483.277 611.393 476.831 614.018 470.405L616.004 465.592L618.127 460.841L622.423 451.36C625.343 445.065 628.162 438.715 631.288 432.524C634.426 426.339 637.609 420.172 640.834 414.029C692.948 315.979 769.03 231.392 861.009 168.599C866.682 164.571 872.57 160.841 878.448 157.098C884.332 153.364 890.223 149.639 896.174 146.013C902.206 142.505 908.262 139.038 914.343 135.612L923.481 130.503C926.544 128.83 929.674 127.27 932.777 125.665C938.998 122.48 945.242 119.337 951.507 116.237C957.77 113.135 964.205 110.361 970.579 107.474L980.182 103.231C983.38 101.812 986.597 100.433 989.864 99.1673C996.373 96.5731 1002.9 94.0233 1009.44 91.518C1015.96 88.9424 1022.6 86.6872 1029.25 84.4544C1035.9 82.2141 1042.56 80.0184 1049.23 77.8671C1055.96 75.877 1062.71 73.9666 1069.47 72.0839C1076.23 70.218 1082.98 68.3 1089.82 66.7787C1103.49 63.5971 1117.16 60.4137 1130.98 58.1197C1137.88 56.9041 1144.78 55.6829 1151.7 54.6026C1158.63 53.6594 1165.57 52.7607 1172.51 51.9102C1186.39 50.0312 1200.29 49.1695 1214.21 48.1578C1221.17 47.5963 1228.1 47.5 1235.05 47.2777C1241.99 47.0887 1248.94 46.9479 1255.88 46.8497L1302.14 46.8461H1394.39V46.8497Z" fill="#F1F1F1"></path><path d="M1097.84 732.994H1187.5C1187.81 739.831 1188.32 745.974 1190.2 751.761C1190.43 753.277 1191.23 754.613 1191.53 756.112C1191.8 756.823 1192.2 757.489 1192.43 758.215C1192.56 758.573 1192.67 758.941 1192.78 759.308C1192.98 759.64 1193.17 759.979 1193.34 760.324C1194.42 763.203 1196.17 765.82 1197.74 768.547C1198.2 769.188 1198.62 769.859 1198.99 770.569C1199.47 771.201 1200.01 771.807 1200.43 772.481C1200.67 772.804 1200.83 773.182 1201.09 773.487C1201.37 773.78 1201.64 774.081 1201.9 774.39C1202.16 774.699 1202.4 775.02 1202.64 775.35C1202.87 775.678 1203.06 776.039 1203.39 776.297C1203.97 776.865 1204.51 777.473 1204.99 778.122C1205.21 778.476 1205.53 778.728 1205.84 779C1206.14 779.276 1206.42 779.561 1206.7 779.86C1206.98 780.156 1207.24 780.464 1207.5 780.785C1207.76 781.096 1208.13 781.305 1208.42 781.585C1209.05 782.109 1209.59 782.717 1210.16 783.299C1212.67 785.363 1215.2 787.383 1217.82 789.234C1218.48 789.683 1219.22 790.003 1219.86 790.474L1220.83 791.176C1221.2 791.336 1221.55 791.506 1221.9 791.691C1222.61 792.028 1223.23 792.56 1223.94 792.892C1224.67 793.183 1225.37 793.526 1226.04 793.928L1226.54 794.239L1227.09 794.434C1227.46 794.565 1227.82 794.712 1228.17 794.871C1228.88 795.173 1229.52 795.653 1230.29 795.801C1231.02 796.038 1231.73 796.333 1232.42 796.687C1233.16 796.915 1233.91 797.07 1234.62 797.358L1235.69 797.791C1236.07 797.854 1236.45 797.93 1236.82 798.023C1237.58 798.177 1238.27 798.523 1239.02 798.692C1240.57 798.848 1242 799.504 1243.59 799.58C1243.97 799.644 1244.35 799.726 1244.73 799.822L1245.3 799.978L1245.9 800C1246.71 800.041 1247.49 800.141 1248.28 800.306C1248.66 800.43 1249.08 800.411 1249.49 800.406C1249.91 800.41 1250.32 800.43 1250.73 800.463C1251.55 800.506 1252.34 800.762 1253.22 800.638C1254.08 800.61 1254.93 800.641 1255.78 800.734L1276.6 801.194C1292.58 801.416 1308.64 802.832 1324.65 804.119C1388.69 810.527 1452.4 825.399 1512.46 849.151C1527.58 854.845 1542.23 861.598 1556.91 868.263C1564.15 871.774 1571.34 875.412 1578.52 879.068C1582.09 880.917 1585.7 882.705 1589.22 884.645L1599.75 890.539C1627.87 906.162 1654.63 924.016 1680.16 943.352L1625.43 1013.47C1603.19 996.629 1579.89 981.053 1555.38 967.467L1546.22 962.325C1543.16 960.631 1540.01 959.088 1536.89 957.477C1530.64 954.301 1524.39 951.127 1518.08 948.061C1505.29 942.288 1492.55 936.364 1479.38 931.434C1427.1 910.737 1371.66 897.831 1315.87 892.22C1301.92 891.133 1287.93 889.847 1273.99 889.682L1249.7 889.094C1247.8 889.181 1245.97 888.866 1244.12 888.75L1241.35 888.566C1240.42 888.525 1239.49 888.494 1238.59 888.314C1236.77 888.04 1234.95 887.81 1233.12 887.623L1231.75 887.488L1230.4 887.212L1227.71 886.707C1224.07 886.266 1220.6 885.175 1217.02 884.512C1215.25 884.089 1213.54 883.47 1211.78 883.029L1209.15 882.351L1206.58 881.443C1204.87 880.832 1203.13 880.335 1201.41 879.749C1199.74 879.036 1198.05 878.367 1196.35 877.739C1194.61 877.198 1193.01 876.31 1191.34 875.586L1188.84 874.5L1187.58 873.972L1186.38 873.321C1184.77 872.463 1183.15 871.648 1181.49 870.87C1179.86 870.051 1178.35 869.017 1176.73 868.161L1174.32 866.856L1172.03 865.344C1170.5 864.327 1168.89 863.443 1167.37 862.419C1161.32 858.262 1155.54 853.709 1149.96 848.903C1148.62 847.637 1147.33 846.329 1145.96 845.095C1145.3 844.457 1144.56 843.89 1143.94 843.218L1142.05 841.2L1140.13 839.228C1139.47 838.582 1138.8 837.951 1138.24 837.218C1137.06 835.807 1135.85 834.429 1134.6 833.076C1133.95 832.428 1133.42 831.672 1132.86 830.945L1131.17 828.785L1129.41 826.663C1128.84 825.95 1128.37 825.16 1127.83 824.423C1126.79 822.918 1125.67 821.475 1124.6 819.992C1123.66 818.432 1122.68 816.9 1121.66 815.388C1117.89 809.174 1114.18 802.913 1111.4 796.259L1110.22 793.824L1109.27 791.299C1108.65 789.614 1107.88 787.981 1107.25 786.299C1106.23 782.854 1104.79 779.55 1103.98 776.043C1099.8 762.292 1098.14 747.881 1097.84 732.994Z" fill="#F9F9F9"></path><path d="M918.939 732.994H1008.6C1008.89 755.893 1011.68 778.537 1018.16 800.211C1019.53 805.7 1021.63 810.964 1023.35 816.347C1024.34 818.997 1025.48 821.591 1026.49 824.23L1028.04 828.182L1029.84 832.031C1034.31 842.445 1039.97 852.333 1045.93 862.015C1047.5 864.392 1049.04 866.782 1050.56 869.189L1055.56 876.127C1056.41 877.278 1057.18 878.477 1058.06 879.598L1060.76 882.931L1063.41 886.289C1064.3 887.412 1065.15 888.561 1066.13 889.598L1071.79 896.045C1072.69 897.157 1073.71 898.161 1074.72 899.18L1077.71 902.26L1080.67 905.367C1081.66 906.4 1082.76 907.324 1083.79 908.315L1090.04 914.208C1098.67 921.744 1107.7 928.819 1117.17 935.271C1119.54 936.868 1122.01 938.312 1124.41 939.876L1128.02 942.194L1131.77 944.282C1134.28 945.653 1136.7 947.186 1139.25 948.49C1141.81 949.754 1144.37 951.04 1146.9 952.35L1148.81 953.338L1150.77 954.198L1154.69 955.928C1157.31 957.077 1159.86 958.369 1162.57 959.299C1165.24 960.316 1167.89 961.359 1170.54 962.427L1178.67 965.138L1182.72 966.515L1186.86 967.637C1189.62 968.367 1192.33 969.255 1195.11 969.931C1200.71 971.099 1206.23 972.627 1211.91 973.43L1216.14 974.193L1218.25 974.59L1220.39 974.836C1223.24 975.168 1226.09 975.527 1228.94 975.911C1230.35 976.146 1231.79 976.23 1233.23 976.315L1237.55 976.624C1240.42 976.817 1243.28 977.188 1246.19 977.141L1271.39 977.759C1283.3 977.864 1295.22 979.022 1307.13 979.912C1354.71 984.731 1401.93 995.679 1446.46 1013.33C1457.69 1017.51 1468.52 1022.6 1479.44 1027.49C1484.81 1030.11 1490.13 1032.82 1495.46 1035.52C1498.11 1036.9 1500.81 1038.2 1503.42 1039.65L1511.22 1044.04C1532.12 1055.6 1551.97 1068.91 1570.95 1083.27L1516.22 1153.38C1500.52 1141.53 1484.14 1130.49 1466.85 1120.97L1460.42 1117.32C1458.26 1116.12 1456.03 1115.06 1453.84 1113.93L1440.61 1107.28C1431.58 1103.29 1422.67 1099.02 1413.38 1095.61C1376.63 1081.01 1337.68 1072.03 1298.36 1068.01C1288.5 1067.32 1278.65 1066.29 1268.77 1066.24L1242.66 1065.6C1238.74 1065.6 1234.84 1065.18 1230.94 1064.91L1225.08 1064.47C1223.13 1064.34 1221.18 1064.21 1219.24 1063.92L1207.6 1062.45L1204.69 1062.09L1201.81 1061.58L1196.04 1060.55C1188.3 1059.39 1180.74 1057.42 1173.11 1055.75C1169.32 1054.82 1165.58 1053.66 1161.82 1052.64L1156.18 1051.07L1150.62 1049.22C1146.93 1047.96 1143.21 1046.78 1139.53 1045.49L1128.63 1041.23C1124.95 1039.91 1121.44 1038.21 1117.87 1036.64L1112.53 1034.26L1109.86 1033.07L1107.25 1031.74L1096.81 1026.47C1093.35 1024.67 1090.02 1022.64 1086.61 1020.75L1081.52 1017.87L1076.58 1014.75C1073.3 1012.64 1069.96 1010.63 1066.72 1008.46C1053.83 999.698 1041.54 990.088 1029.84 979.812L1021.33 971.823C1019.93 970.476 1018.46 969.194 1017.11 967.8L1013.06 963.598L1009.01 959.405C1007.65 958.011 1006.28 956.631 1005.04 955.139L997.348 946.376C996.029 944.947 994.85 943.402 993.644 941.882L990.02 937.324L986.384 932.773C985.189 931.245 984.108 929.632 982.961 928.068L976.175 918.613L969.848 908.855C961.692 895.691 954.065 882.159 947.899 867.968L945.473 862.698L943.328 857.314C941.922 853.715 940.407 850.155 939.065 846.533C936.624 839.206 933.886 831.97 931.937 824.491C923.154 794.854 919.228 763.943 918.939 732.994Z" fill="#F6F6F6"></path><path d="M740.034 732.994H829.691C829.975 771.957 835.034 811.098 846.117 848.66C848.637 858.12 852.019 867.316 855.172 876.581C856.869 881.171 858.755 885.692 860.551 890.245L863.293 897.057L866.341 903.74C874.197 921.689 883.776 938.849 894.123 955.482L902.136 967.81C904.936 971.833 907.838 975.787 910.694 979.771C912.143 981.748 913.532 983.77 915.037 985.706L919.611 991.469L924.196 997.224C925.727 999.14 927.232 1001.08 928.88 1002.9L938.591 1013.96C940.18 1015.83 941.898 1017.59 943.604 1019.36L948.718 1024.66L953.841 1029.95C955.559 1031.7 957.392 1033.34 959.166 1035.04C962.749 1038.41 966.301 1041.8 969.927 1045.12C984.675 1058.12 1000.21 1070.26 1016.52 1081.31C1020.6 1084.06 1024.82 1086.62 1028.96 1089.28L1035.22 1093.21L1041.65 1096.87C1045.95 1099.28 1050.19 1101.81 1054.56 1104.09L1067.77 1110.77L1071.08 1112.43L1074.45 1113.96L1081.22 1116.98C1085.73 1118.98 1090.2 1121.08 1094.84 1122.79L1108.66 1128.16C1113.32 1129.82 1118.02 1131.34 1122.71 1132.91L1129.75 1135.23L1136.89 1137.25C1141.66 1138.55 1146.4 1139.98 1151.2 1141.17C1160.85 1143.35 1170.45 1145.75 1180.23 1147.28L1187.54 1148.56L1191.19 1149.2L1194.87 1149.67L1209.59 1151.51C1212.04 1151.86 1214.51 1152.04 1216.97 1152.22L1224.36 1152.78C1229.29 1153.12 1234.22 1153.61 1239.16 1153.64L1266.17 1154.32C1274.02 1154.31 1281.81 1155.21 1289.62 1155.7C1320.73 1158.93 1351.46 1165.95 1380.46 1177.51C1387.81 1180.16 1394.81 1183.61 1401.97 1186.7L1412.42 1191.97C1414.15 1192.87 1415.92 1193.69 1417.62 1194.64L1422.7 1197.54C1436.38 1205.04 1449.32 1213.8 1461.75 1223.18L1407.02 1293.29C1397.87 1286.42 1388.39 1279.93 1378.34 1274.46L1374.62 1272.32C1373.38 1271.61 1372.07 1271.04 1370.8 1270.38L1363.15 1266.5C1357.88 1264.3 1352.79 1261.68 1347.39 1259.79C1326.17 1251.29 1303.71 1246.23 1280.85 1243.8C1275.09 1243.5 1269.38 1242.74 1263.56 1242.8L1235.64 1242.09C1229.68 1242.02 1223.72 1241.48 1217.76 1241.06L1208.83 1240.38C1205.85 1240.15 1202.87 1239.92 1199.9 1239.52L1182.09 1237.29L1177.64 1236.7L1173.21 1235.94L1164.36 1234.4C1152.53 1232.51 1140.87 1229.67 1129.2 1226.98C1123.38 1225.54 1117.63 1223.84 1111.86 1222.25L1103.21 1219.79L1094.67 1216.99C1088.99 1215.09 1083.29 1213.23 1077.65 1211.22L1060.91 1204.73C1055.3 1202.62 1049.87 1200.11 1044.4 1197.69L1036.21 1194.02L1032.13 1192.16L1028.12 1190.16L1012.13 1182.06C1006.84 1179.3 1001.7 1176.26 996.491 1173.34L988.721 1168.89L981.137 1164.15C976.109 1160.94 971.027 1157.81 966.083 1154.49C946.338 1141.13 927.55 1126.47 909.735 1110.72C905.344 1106.72 901.037 1102.62 896.713 1098.55C894.569 1096.5 892.368 1094.5 890.286 1092.38L884.08 1086L877.902 1079.58C875.845 1077.44 873.778 1075.31 871.843 1073.06L860.102 1059.68C858.122 1057.47 856.289 1055.14 854.433 1052.82L848.883 1045.87L843.365 1038.89C841.548 1036.54 839.854 1034.11 838.099 1031.72C834.633 1026.9 831.138 1022.11 827.76 1017.24L818.051 1002.33C805.503 982.209 793.965 961.406 784.408 939.681L780.737 931.578L777.397 923.334C775.21 917.821 772.949 912.335 770.894 906.774C767.026 895.563 763 884.397 759.903 872.947C746.509 827.417 740.312 780.006 740.034 732.994Z" fill="#F3F3F3"></path><path d="M561.129 732.994H650.786C651.058 788.019 658.389 843.66 674.073 897.11C677.74 910.541 682.409 923.669 686.989 936.816C689.398 943.344 692.032 949.793 694.608 956.26L698.548 965.931L702.84 975.448C714.087 1000.93 727.576 1025.36 742.316 1048.95C746.077 1054.8 749.876 1060.63 753.712 1066.43C757.668 1072.15 761.754 1077.78 765.824 1083.41C767.881 1086.22 769.884 1089.06 772.008 1091.81L778.464 1100.01L784.975 1108.16C787.154 1110.87 789.316 1113.59 791.626 1116.19C796.179 1121.45 800.768 1126.68 805.389 1131.88C807.667 1134.51 810.079 1137.02 812.486 1139.53L819.725 1147.05L827.011 1154.53C829.454 1157 832.022 1159.36 834.535 1161.77C839.598 1166.55 844.654 1171.33 849.808 1176.02C870.672 1194.49 892.705 1211.68 915.867 1227.34C921.664 1231.23 927.611 1234.92 933.514 1238.67L942.417 1244.22L951.521 1249.45C957.623 1252.89 963.666 1256.43 969.874 1259.68C976.107 1262.89 982.362 1266.06 988.636 1269.18L993.345 1271.52L998.131 1273.71L1007.73 1278.03C1014.15 1280.87 1020.54 1283.79 1027.11 1286.28C1033.65 1288.86 1040.2 1291.4 1046.77 1293.89C1053.39 1296.26 1060.07 1298.46 1066.74 1300.68C1070.08 1301.78 1073.42 1302.9 1076.78 1303.95L1086.92 1306.85C1093.7 1308.74 1100.45 1310.71 1107.28 1312.4C1120.98 1315.59 1134.67 1318.86 1148.55 1321.12L1158.94 1322.92L1164.13 1323.8L1169.35 1324.5C1176.31 1325.41 1183.27 1326.29 1190.24 1327.11C1193.72 1327.57 1197.21 1327.85 1200.7 1328.13L1211.17 1328.94C1218.15 1329.43 1225.14 1330.03 1232.11 1330.14C1239.09 1330.35 1246.07 1330.52 1253.05 1330.64L1255.66 1330.69C1256.23 1330.69 1256.25 1330.7 1256.37 1330.71L1256.72 1330.73L1258.13 1330.79L1260.94 1330.88C1264.73 1330.76 1268.38 1331.39 1272.1 1331.49C1286.74 1333.13 1300.97 1336.23 1314.45 1341.69C1317.91 1342.81 1321.1 1344.61 1324.49 1345.92C1326.11 1346.76 1327.71 1347.63 1329.35 1348.43C1330.16 1348.85 1331.02 1349.18 1331.8 1349.64L1334.16 1351.04C1340.61 1354.47 1346.64 1358.7 1352.53 1363.09L1297.8 1433.21C1295.2 1431.31 1292.63 1429.36 1289.8 1427.96C1289.46 1427.76 1289.13 1427.55 1288.8 1427.32C1288.47 1427.1 1288.08 1427.01 1287.73 1426.83C1287.01 1426.52 1286.34 1426.11 1285.67 1425.72C1284.16 1425.3 1282.89 1424.33 1281.37 1423.97C1281.01 1423.83 1280.66 1423.68 1280.31 1423.52L1279.79 1423.26C1279.61 1423.2 1279.42 1423.17 1279.23 1423.12C1278.48 1422.93 1277.76 1422.69 1277.05 1422.38C1276.71 1422.18 1276.32 1422.16 1275.94 1422.08C1275.57 1422 1275.2 1421.9 1274.83 1421.79C1274.46 1421.68 1274.1 1421.56 1273.74 1421.41C1273.38 1421.26 1272.97 1421.29 1272.6 1421.2C1271.84 1421.07 1271.1 1420.87 1270.36 1420.61C1269.58 1420.54 1268.8 1420.46 1268.04 1420.28C1267.65 1420.21 1267.28 1420.07 1266.89 1420.01C1266.49 1420 1266.09 1419.98 1265.69 1419.94C1264.9 1419.89 1264.13 1419.67 1263.32 1419.59C1261.65 1419.69 1260.08 1419.18 1258.33 1419.37C1257.9 1419.36 1257.48 1419.34 1257.05 1419.31L1256.41 1419.25L1256.25 1419.23L1256.17 1419.22C1256.19 1419.22 1256.13 1419.22 1255.97 1419.21L1255.59 1419.21L1252.59 1419.16C1244.59 1419.04 1236.59 1418.85 1228.59 1418.6C1220.6 1418.45 1212.58 1417.79 1204.56 1417.22L1192.55 1416.28C1188.55 1415.97 1184.55 1415.63 1180.54 1415.12C1172.54 1414.18 1164.55 1413.18 1156.56 1412.11L1150.57 1411.3L1144.6 1410.31L1132.67 1408.24C1116.74 1405.62 1101 1401.91 1085.27 1398.21C1077.43 1396.27 1069.66 1394.02 1061.88 1391.85L1050.23 1388.5C1046.37 1387.3 1042.54 1386.02 1038.7 1384.76C1031.03 1382.21 1023.36 1379.68 1015.76 1376.95C1008.21 1374.1 1000.68 1371.18 993.173 1368.21C985.628 1365.33 978.284 1362 970.91 1358.74L959.882 1353.77L954.387 1351.25L948.975 1348.57C941.764 1344.99 934.58 1341.35 927.429 1337.65C920.303 1333.91 913.352 1329.88 906.349 1325.92L895.903 1319.9L885.675 1313.54C878.892 1309.25 872.076 1304.99 865.421 1300.52C838.827 1282.56 813.536 1262.84 789.605 1241.62C783.686 1236.25 777.875 1230.76 772.07 1225.27C769.188 1222.51 766.252 1219.79 763.445 1216.96L755.074 1208.39L746.771 1199.75C744.013 1196.87 741.254 1193.98 738.628 1190.97C733.317 1185.01 728.052 1179.01 722.835 1172.97C720.193 1169.98 717.704 1166.86 715.198 1163.75L707.723 1154.4L700.323 1144.99C697.887 1141.83 695.575 1138.57 693.216 1135.35C688.535 1128.88 683.856 1122.41 679.32 1115.85C674.904 1109.19 670.541 1102.5 666.23 1095.78C649.29 1068.71 633.84 1040.64 620.894 1011.38L615.977 1000.44L611.439 989.334C608.47 981.907 605.464 974.493 602.697 966.992C597.403 951.9 592.088 936.802 587.844 921.381C569.865 859.978 561.395 796.068 561.129 732.994Z" fill="#F1F1F1"></path><path d="M1625.43 1013.47L1680.15 943.352C1686.49 948.24 1692.83 953.147 1699.06 958.159C1705.19 963.294 1711.28 968.48 1717.33 973.709C1723.45 978.872 1729.24 984.375 1735.07 989.838C1740.85 995.35 1746.77 1000.74 1752.28 1006.51C1757.86 1012.22 1763.4 1017.98 1768.89 1023.77C1774.33 1029.62 1779.55 1035.66 1784.82 1041.66L1792.64 1050.72L1800.16 1060.04C1805.11 1066.3 1810.15 1072.49 1814.9 1078.9C1834.05 1104.47 1851.31 1131.41 1866.9 1159.31C1870.68 1166.35 1874.37 1173.45 1878.02 1180.55C1879.82 1184.12 1881.71 1187.65 1883.4 1191.27L1888.45 1202.14L1893.42 1213.06C1895.07 1216.7 1896.72 1220.34 1898.19 1224.06C1901.22 1231.47 1904.18 1238.89 1907.09 1246.34C1908.58 1250.05 1909.92 1253.82 1911.23 1257.6L1915.15 1268.94C1917.74 1276.51 1920.31 1284.08 1922.47 1291.78C1924.72 1299.45 1926.92 1307.14 1929.04 1314.84C1931 1322.59 1932.82 1330.37 1934.62 1338.15C1935.5 1342.05 1936.41 1345.94 1937.23 1349.84L1939.44 1361.6C1940.85 1369.45 1942.33 1377.3 1943.51 1385.17C1945.64 1400.94 1947.85 1416.74 1948.89 1432.55L1949.78 1444.42C1950.05 1448.38 1950.35 1452.34 1950.44 1456.28C1950.71 1464.18 1950.92 1472.08 1951.07 1479.98L1951.17 1485.9L1951.19 1489.67V1496.23V1509.35L1951.12 1563.58C1950.82 1579.38 1950.53 1595.16 1949.13 1611L1948.18 1622.86L1947.67 1628.79C1947.47 1630.76 1947.21 1632.74 1946.98 1634.71C1946.03 1642.61 1945.01 1650.51 1943.93 1658.39C1939.11 1689.88 1932.63 1721.24 1923.35 1751.87L1919.95 1763.37L1916.15 1774.74C1913.56 1782.31 1911.01 1789.89 1908.22 1797.39C1902.4 1812.28 1896.58 1827.2 1889.75 1841.66C1883.26 1856.29 1875.85 1870.45 1868.37 1884.58C1864.56 1891.6 1860.48 1898.48 1856.47 1905.38L1850.37 1915.7L1843.92 1925.79C1775.14 2033.47 1676.12 2121.31 1559.72 2177.01L1520.54 2097.39C1621.88 2048.91 1708.22 1972.31 1768.11 1878.51L1773.74 1869.73L1779.05 1860.74C1782.54 1854.72 1786.1 1848.75 1789.42 1842.63C1795.91 1830.31 1802.4 1818 1808.03 1805.26C1813.99 1792.67 1819.02 1779.67 1824.11 1766.72C1826.54 1760.19 1828.75 1753.59 1831.01 1747.01L1834.33 1737.11L1837.27 1727.09C1845.38 1700.45 1850.98 1673.13 1855.2 1645.72C1856.13 1638.85 1857.01 1631.97 1857.85 1625.09C1858.06 1623.37 1858.29 1621.65 1858.46 1619.93L1858.9 1614.77L1859.72 1604.43C1860.97 1590.63 1861.18 1576.86 1861.47 1563.08L1861.53 1509.35V1496.24V1489.68L1861.51 1486.05L1861.42 1480.88C1861.28 1473.99 1861.1 1467.1 1860.87 1460.22C1860.81 1456.78 1860.53 1453.33 1860.29 1449.88L1859.51 1439.53C1858.64 1425.74 1856.66 1411.99 1854.84 1398.25C1853.8 1391.4 1852.5 1384.57 1851.28 1377.73L1849.37 1367.49C1848.65 1364.09 1847.85 1360.71 1847.08 1357.32C1845.51 1350.54 1843.94 1343.77 1842.24 1337.03C1840.38 1330.32 1838.47 1323.63 1836.52 1316.95C1834.65 1310.24 1832.39 1303.66 1830.14 1297.07L1826.73 1287.2C1825.6 1283.91 1824.44 1280.63 1823.13 1277.4C1820.59 1270.92 1818.01 1264.45 1815.38 1258.01C1814.11 1254.76 1812.66 1251.6 1811.23 1248.43L1806.9 1238.93L1802.51 1229.45C1801.04 1226.3 1799.39 1223.23 1797.82 1220.13C1794.63 1213.94 1791.42 1207.76 1788.14 1201.63C1774.55 1177.34 1759.52 1153.87 1742.85 1131.59C1738.71 1126 1734.31 1120.61 1729.99 1115.16L1723.45 1107.03L1716.63 1099.14C1712.03 1093.92 1707.49 1088.64 1702.76 1083.55C1697.96 1078.51 1693.13 1073.5 1688.27 1068.51C1683.48 1063.46 1678.31 1058.8 1673.27 1053.98C1668.19 1049.23 1663.16 1044.41 1657.82 1039.93C1652.54 1035.38 1647.24 1030.86 1641.9 1026.37C1636.47 1022 1630.94 1017.73 1625.43 1013.47Z" fill="#F9F9F9"></path><path d="M1516.22 1153.38L1570.95 1083.26C1646.75 1140.82 1706.08 1219.39 1739.55 1308.3C1740.68 1311.05 1741.66 1313.84 1742.62 1316.65L1745.52 1325.06C1747.44 1330.67 1749.38 1336.27 1750.95 1341.99L1755.84 1359.09C1757.28 1364.84 1758.61 1370.61 1759.95 1376.38C1760.61 1379.27 1761.3 1382.15 1761.91 1385.05L1763.53 1393.78C1764.56 1399.6 1765.69 1405.42 1766.57 1411.27C1768.09 1422.99 1769.83 1434.7 1770.54 1446.47L1771.21 1455.3C1771.42 1458.24 1771.67 1461.18 1771.71 1464.12L1772.18 1481.77L1772.27 1486.18L1772.28 1489.68V1496.23V1509.35L1772.22 1562.58C1771.94 1574.34 1771.82 1586.11 1770.72 1597.88L1770.02 1606.7C1769.81 1609.64 1769.54 1612.58 1769.14 1615.51L1766.88 1633.09C1763.25 1656.45 1758.53 1679.74 1751.59 1702.43L1749.1 1710.96L1746.26 1719.39C1744.33 1725 1742.46 1730.63 1740.4 1736.19C1736.02 1747.21 1731.79 1758.3 1726.68 1769.02C1721.91 1779.88 1716.34 1790.36 1710.83 1800.87C1708.01 1806.09 1704.95 1811.17 1701.98 1816.3L1697.48 1823.97L1692.66 1831.45C1641.6 1911.43 1567.89 1976.84 1481.53 2018.14L1442.34 1938.52C1513.65 1904.44 1574.68 1850.27 1616.86 1784.18L1620.85 1778.01L1624.56 1771.66C1627.01 1767.41 1629.56 1763.23 1631.88 1758.92C1636.4 1750.22 1641.05 1741.59 1644.96 1732.61C1649.21 1723.78 1652.65 1714.6 1656.29 1705.52C1657.99 1700.93 1659.51 1696.27 1661.12 1691.65L1663.48 1684.7L1665.52 1677.65C1671.28 1658.94 1675.11 1639.7 1678.14 1620.41L1680.01 1605.88C1680.36 1603.46 1680.57 1601.03 1680.74 1598.59L1681.31 1591.3C1682.25 1581.57 1682.3 1571.82 1682.56 1562.07L1682.62 1509.35V1496.24V1489.68C1682.61 1488.55 1682.64 1487.56 1682.61 1486.33L1682.52 1482.67L1682.14 1468.05C1682.12 1465.61 1681.9 1463.18 1681.72 1460.75L1681.16 1453.45C1680.61 1443.7 1679.1 1434.04 1677.89 1424.35C1677.17 1419.52 1676.21 1414.72 1675.37 1409.91L1674.05 1402.69C1673.54 1400.3 1672.96 1397.93 1672.42 1395.55C1671.3 1390.78 1670.21 1386.02 1669.04 1381.27L1664.99 1367.16C1663.72 1362.44 1662.09 1357.82 1660.5 1353.19L1658.11 1346.25C1657.33 1343.93 1656.53 1341.62 1655.59 1339.36C1628 1265.98 1578.91 1200.97 1516.22 1153.38Z" fill="#F6F6F6"></path><path d="M1407.01 1293.29L1461.74 1223.18C1511.37 1260.85 1550.29 1312.35 1572.02 1370.26C1572.78 1372.04 1573.4 1373.87 1574.01 1375.7L1575.88 1381.18C1577.14 1384.83 1578.46 1388.47 1579.43 1392.21L1582.64 1403.33L1585.29 1414.61C1585.72 1416.49 1586.2 1418.36 1586.6 1420.25L1587.62 1425.95C1588.27 1429.76 1589.06 1433.54 1589.63 1437.36C1590.53 1445.03 1591.81 1452.66 1592.2 1460.39L1592.65 1466.17C1592.8 1468.1 1592.99 1470.02 1592.99 1471.96L1593.28 1483.56L1593.37 1486.46C1593.4 1487.42 1593.38 1488.61 1593.38 1489.67V1496.23V1509.35L1593.32 1561.57C1593.1 1623.52 1574.9 1684.89 1541.41 1737.12C1508.06 1789.4 1459.66 1832.37 1403.33 1859.26L1364.15 1779.65C1405.42 1759.97 1441.14 1728.24 1465.61 1689.84C1490.17 1651.42 1503.46 1606.86 1503.67 1561.06L1503.72 1509.35V1496.23V1489.67V1488.03C1503.72 1487.49 1503.73 1486.88 1503.71 1486.6L1503.63 1484.46L1503.42 1475.89C1503.44 1474.45 1503.28 1473.04 1503.16 1471.62L1502.82 1467.36C1502.59 1461.66 1501.55 1456.08 1500.96 1450.43C1500.54 1447.63 1499.93 1444.87 1499.46 1442.08L1498.74 1437.89C1498.44 1436.51 1498.08 1435.15 1497.76 1433.77L1495.84 1425.51C1495.03 1422.8 1494.24 1420.09 1493.47 1417.37C1492.79 1414.63 1491.79 1411.98 1490.87 1409.31L1489.51 1405.29C1489.07 1403.94 1488.63 1402.6 1488.06 1401.31C1472.21 1358.95 1443.52 1321 1407.01 1293.29Z" fill="#F3F3F3"></path><path d="M1297.81 1433.21L1352.54 1363.09C1375.99 1380.87 1394.49 1405.32 1404.48 1432.22C1404.87 1433.03 1405.13 1433.89 1405.39 1434.75L1406.24 1437.3C1406.84 1439 1407.52 1440.66 1407.9 1442.42C1408.37 1444.15 1408.88 1445.87 1409.44 1447.58C1409.83 1449.34 1410.18 1451.1 1410.62 1452.84C1410.83 1453.71 1411.09 1454.58 1411.28 1455.46L1411.7 1458.13C1411.98 1459.91 1412.42 1461.66 1412.69 1463.45C1412.98 1467.08 1413.78 1470.62 1413.85 1474.31L1414.08 1477.05C1414.17 1477.96 1414.31 1478.86 1414.26 1479.8C1414.25 1481.65 1414.3 1483.51 1414.38 1485.36L1414.46 1486.75C1414.48 1486.85 1414.47 1487.49 1414.47 1488.04V1489.68V1496.24V1509.35L1414.42 1560.56C1414.19 1564.26 1414.39 1568 1413.9 1571.62L1413.72 1574.36L1413.65 1575.74C1413.61 1576.19 1413.51 1576.64 1413.45 1577.09C1413.18 1578.88 1412.94 1580.68 1412.76 1582.49C1411.51 1589.6 1410.34 1596.72 1408.09 1603.55L1407.4 1606.15L1406.48 1608.68C1405.85 1610.36 1405.37 1612.09 1404.75 1613.78C1403.28 1617.07 1402.22 1620.51 1400.54 1623.72C1399.2 1627.07 1397.31 1630.18 1395.76 1633.44C1394.91 1635.04 1393.88 1636.55 1393.01 1638.14L1391.69 1640.53L1390.15 1642.79C1374.51 1667.36 1351.43 1687.9 1325.13 1700.39L1285.94 1620.78C1297.19 1615.51 1307.59 1606.21 1314.35 1595.51C1314.58 1595.19 1314.82 1594.87 1315.07 1594.56C1315.23 1594.2 1315.4 1593.85 1315.59 1593.5C1315.93 1592.8 1316.45 1592.19 1316.81 1591.49C1317.38 1590.04 1318.34 1588.78 1318.81 1587.31C1319.64 1585.99 1319.9 1584.46 1320.65 1583.11C1320.9 1582.4 1321.04 1581.64 1321.34 1580.94C1321.47 1580.59 1321.63 1580.24 1321.79 1579.89C1321.85 1579.51 1321.93 1579.14 1322.02 1578.78C1323.09 1575.93 1323.38 1572.86 1324.03 1569.81C1324.06 1569.02 1324.17 1568.24 1324.33 1567.46C1324.36 1567.27 1324.43 1567.08 1324.45 1566.88L1324.44 1566.27C1324.44 1565.86 1324.46 1565.45 1324.49 1565.05C1324.82 1563.47 1324.55 1561.74 1324.76 1560.06L1324.82 1509.36V1496.24V1489.68V1488.04V1487.22V1487.01L1324.81 1486.97L1324.8 1486.89L1324.73 1486.26C1324.66 1485.42 1324.64 1484.58 1324.69 1483.73C1324.76 1483.3 1324.65 1482.9 1324.59 1482.5C1324.54 1482.09 1324.5 1481.69 1324.47 1481.28C1324.57 1479.62 1324 1478.13 1324.01 1476.53C1323.9 1475.76 1323.63 1475.03 1323.55 1474.26C1323.49 1473.87 1323.45 1473.49 1323.42 1473.1C1323.33 1472.73 1323.18 1472.37 1323.09 1472C1322.87 1471.27 1322.77 1470.51 1322.64 1469.76C1322.35 1469.05 1322.12 1468.33 1321.95 1467.59C1321.86 1466.82 1321.49 1466.14 1321.23 1465.43C1321.11 1465.07 1320.99 1464.71 1320.9 1464.34C1320.81 1463.97 1320.73 1463.6 1320.52 1463.27C1316.41 1451.91 1308.14 1441.02 1297.81 1433.21Z" fill="#F1F1F1"></path><path d="M1520.54 2097.39L1559.73 2177.01C1552.47 2180.49 1545.08 2183.74 1537.71 2187.02L1526.63 2191.87L1515.38 2196.34C1507.86 2199.27 1500.35 2202.25 1492.75 2204.96C1485.11 2207.59 1477.45 2210.16 1469.77 2212.67C1438.95 2222.35 1407.51 2230.33 1375.66 2235.59L1363.72 2237.62C1359.74 2238.29 1355.75 2238.74 1351.75 2239.29C1343.76 2240.33 1335.76 2241.31 1327.76 2242.23C1319.76 2242.98 1311.75 2243.57 1303.74 2244.16L1291.71 2244.97L1279.72 2245.36L1267.72 2245.66L1255.91 2245.86H1242.63H1216.06H1003.49H790.919H737.776H711.205H697.92L694.774 2245.87L694.134 2245.94C693.708 2245.98 693.28 2246 692.854 2246.01C685.989 2246 680.015 2247.36 674.094 2248.95L647.194 2164.5C661.109 2160.42 675.458 2157.71 690.503 2157.52L693.318 2157.42L694.725 2157.35L697.921 2157.34H711.207H737.778H790.921H1003.49H1216.06H1242.63H1255.91L1266.24 2157.15L1276.71 2156.89L1287.17 2156.56L1297.65 2155.84C1304.63 2155.33 1311.61 2154.82 1318.58 2154.17C1325.55 2153.36 1332.52 2152.5 1339.48 2151.6C1342.96 2151.12 1346.44 2150.75 1349.91 2150.16L1360.3 2148.38C1388.04 2143.82 1415.4 2136.84 1442.23 2128.43C1448.91 2126.24 1455.58 2124 1462.23 2121.72C1468.85 2119.37 1475.37 2116.75 1481.93 2114.21L1491.73 2110.33L1501.37 2106.1C1507.78 2103.23 1514.22 2100.42 1520.54 2097.39Z" fill="#F9F9F9"></path><path d="M1442.34 1938.52L1481.53 2018.14C1476.14 2020.72 1470.65 2023.1 1465.19 2025.55L1456.98 2029.17L1448.63 2032.46C1443.04 2034.61 1437.49 2036.86 1431.85 2038.86L1414.81 2044.58C1391.95 2051.71 1368.66 2057.71 1345.01 2061.56L1336.15 2063.09C1333.2 2063.6 1330.23 2063.91 1327.26 2064.31L1309.45 2066.52C1303.5 2067.06 1297.54 2067.48 1291.58 2067.93L1282.64 2068.56L1273.7 2068.82L1255.91 2069.22H1242.62H1216.05H1003.48H790.915H737.772H711.201H697.915L694.669 2069.23L692.497 2069.31L688.154 2069.43C664.969 2069.83 642.28 2073.89 620.41 2080.45L593.511 1996C623.374 1986.96 654.438 1981.55 685.803 1980.94L691.679 1980.79L694.618 1980.71L697.914 1980.7H711.199H737.771H790.913H1003.48H1216.06H1242.63H1255.91L1270.69 1980.35L1278.1 1980.15L1285.49 1979.61C1290.42 1979.23 1295.35 1978.89 1300.27 1978.46L1314.99 1976.62C1317.44 1976.29 1319.91 1976.06 1322.34 1975.63L1329.65 1974.35C1349.19 1971.2 1368.39 1966.2 1387.26 1960.34L1401.33 1955.63C1405.99 1953.98 1410.56 1952.1 1415.17 1950.33L1422.08 1947.63L1428.85 1944.63C1433.35 1942.59 1437.89 1940.66 1442.34 1938.52Z" fill="#F6F6F6"></path><path d="M1364.14 1779.65L1403.33 1859.27C1375.14 1872.6 1345.21 1882.39 1314.36 1887.54L1308.59 1888.56C1306.67 1888.92 1304.71 1889.07 1302.78 1889.34L1291.14 1890.81L1279.43 1891.7L1273.57 1892.15L1267.69 1892.28L1255.91 1892.58H1242.63H1216.05H1003.48H790.915H737.773H711.201H697.916L694.569 1892.59L690.867 1892.68L683.463 1892.86C643.959 1893.66 604.556 1900.42 566.737 1911.94L539.837 1827.5C585.649 1813.49 633.428 1805.38 681.111 1804.36L690.05 1804.16L694.519 1804.07L697.916 1804.06H711.201H737.773H790.915H1003.49H1216.06H1242.63H1255.92L1264.69 1803.81L1269.03 1803.74L1273.34 1803.38L1281.96 1802.75C1284.81 1802.35 1287.65 1801.99 1290.5 1801.65C1291.93 1801.45 1293.37 1801.37 1294.77 1801.1L1299 1800.32C1321.62 1796.58 1343.46 1789.37 1364.14 1779.65Z" fill="#F3F3F3"></path><path d="M1285.94 1620.78L1325.13 1700.39C1311.93 1706.53 1298.14 1711.17 1283.71 1713.51L1281.02 1714.03C1280.13 1714.23 1279.19 1714.23 1278.29 1714.36C1276.46 1714.56 1274.64 1714.81 1272.82 1715.1C1270.97 1715.22 1269.12 1715.3 1267.27 1715.47L1264.5 1715.74L1261.68 1715.74L1258.87 1715.81L1255.91 1715.94H1242.63H1216.06H1003.49H790.917H737.774H711.203H697.917L694.472 1715.95L689.239 1716.04L678.772 1716.27C622.948 1717.49 566.831 1726.95 513.063 1743.44L486.163 1659C547.924 1640.02 612.417 1629.21 676.421 1627.78L688.423 1627.52L694.423 1627.43L697.919 1627.42H711.205H737.776H790.919H1003.49H1216.06H1242.63H1255.92C1256.3 1627.42 1256.17 1627.41 1256.27 1627.41L1256.43 1627.39L1256.75 1627.35L1257.39 1627.3C1257.82 1627.28 1258.25 1627.27 1258.67 1627.27C1259.1 1627.27 1259.53 1627.29 1259.96 1627.33C1260.36 1627.25 1260.77 1627.19 1261.18 1627.15C1262 1627.05 1262.83 1627.05 1263.65 1627.04C1264.43 1626.85 1265.22 1626.73 1266.02 1626.67C1266.41 1626.61 1266.83 1626.68 1267.21 1626.57C1267.58 1626.46 1267.97 1626.37 1268.35 1626.29C1274.55 1625.37 1280.25 1623.3 1285.94 1620.78Z" fill="#F1F1F1"></path><path d="M647.192 2164.5L674.092 2248.95C672.701 2249.62 671.145 2249.8 669.775 2250.54C668.276 2250.94 666.968 2251.81 665.485 2252.3C664.77 2252.61 664.135 2253.09 663.415 2253.4C663.06 2253.56 662.7 2253.71 662.33 2253.85C662.002 2254.07 661.677 2254.3 661.339 2254.5C660.68 2254.94 659.932 2255.22 659.254 2255.63C658.62 2256.12 657.955 2256.56 657.253 2256.94C656.497 2257.24 655.972 2257.9 655.287 2258.32C654.643 2258.8 653.877 2259.11 653.32 2259.72C652.708 2260.25 652.06 2260.73 651.372 2261.16C650.775 2261.71 650.206 2262.29 649.561 2262.79C649.255 2263.05 648.881 2263.25 648.601 2263.54C648.331 2263.85 648.052 2264.14 647.761 2264.43C647.47 2264.71 647.168 2264.98 646.856 2265.24C646.543 2265.5 646.199 2265.74 645.97 2266.08C645.45 2266.71 644.887 2267.29 644.275 2267.84C643.938 2268.08 643.722 2268.43 643.472 2268.75C643.223 2269.07 642.962 2269.38 642.69 2269.68C642.418 2269.98 642.132 2270.27 641.834 2270.55C641.554 2270.84 641.374 2271.21 641.123 2271.52C640.659 2272.18 640.094 2272.77 639.572 2273.38C638.807 2274.79 637.604 2275.92 636.905 2277.35C635.888 2278.59 635.34 2280.08 634.404 2281.35C634.015 2282.03 633.779 2282.77 633.373 2283.44C633.184 2283.78 632.977 2284.11 632.763 2284.44C632.643 2284.81 632.51 2285.17 632.362 2285.52C630.868 2288.24 630.1 2291.19 629.07 2294.04C628.912 2294.78 628.693 2295.5 628.409 2296.21C628.182 2296.94 628.165 2297.72 627.935 2298.45C627.837 2298.82 627.724 2299.18 627.597 2299.55C627.51 2299.92 627.522 2300.32 627.456 2300.7C627.356 2301.47 627.178 2302.22 626.964 2302.97C626.953 2303.76 626.88 2304.55 626.743 2305.32C626.692 2305.72 626.549 2306.09 626.531 2306.49C626.54 2306.9 626.536 2307.31 626.516 2307.72C626.504 2308.53 626.305 2309.32 626.272 2310.15C626.328 2311 626.324 2311.84 626.259 2312.68L626.199 2313.32L626.159 2313.63L626.157 2315.2V2321.76V2334.88V2361.11V2466.05V2675.93H536.5V2466.05V2361.11V2334.88V2321.76V2315.2L536.502 2313.61L536.541 2312.92L536.609 2311.53C536.688 2309.67 536.721 2307.82 536.714 2305.96C536.798 2304.12 537.061 2302.31 537.159 2300.48L537.315 2297.74C537.384 2296.83 537.583 2295.94 537.694 2295.04C537.951 2293.24 538.163 2291.44 538.332 2289.63C538.703 2287.86 539.056 2286.09 539.349 2284.32C539.512 2283.43 539.602 2282.53 539.794 2281.65L540.462 2279.03C540.92 2277.3 541.184 2275.51 541.678 2273.79C542.226 2272.08 542.729 2270.35 543.189 2268.62C545.422 2261.81 547.678 2254.97 550.919 2248.51L551.989 2246.02L553.292 2243.64C554.168 2242.05 554.889 2240.39 555.778 2238.81C557.715 2235.74 559.329 2232.48 561.469 2229.51C563.291 2226.35 565.674 2223.55 567.679 2220.5C568.82 2219.06 570.017 2217.67 571.128 2216.21C571.705 2215.5 572.209 2214.73 572.821 2214.04L574.677 2212C593.965 2189.77 619.542 2173.01 647.192 2164.5Z" fill="#F9F9F9"></path><path d="M593.516 1996L620.416 2080.45C576.787 2093.9 536.96 2120.03 506.967 2154.6L504.116 2157.8C503.178 2158.88 502.347 2160.04 501.448 2161.15L496.108 2167.85C492.869 2172.54 489.31 2177.02 486.371 2181.9C483.115 2186.58 480.441 2191.6 477.509 2196.47C476.122 2198.95 474.918 2201.52 473.574 2204.02L471.584 2207.78L469.848 2211.66C464.867 2221.86 461.131 2232.56 457.7 2243.32C456.942 2246.04 456.155 2248.75 455.345 2251.46C454.588 2254.18 454.076 2256.97 453.389 2259.71L452.391 2263.83C452.092 2265.21 451.903 2266.62 451.644 2268.01L450.103 2276.36C449.778 2279.18 449.429 2281.99 449.052 2284.8C448.881 2286.21 448.628 2287.61 448.506 2289.02L448.211 2293.28C448.031 2296.12 447.701 2298.95 447.567 2301.8L447.37 2310.37L447.297 2312.52L447.256 2313.59L447.254 2315.2V2321.76V2334.88V2361.11V2466.05V2675.93H357.597V2466.05V2361.11V2334.88V2321.76V2315.2L357.599 2313.57L357.64 2312.12L357.721 2309.22L358.01 2297.61C358.19 2293.75 358.588 2289.9 358.852 2286.05L359.286 2280.27C359.459 2278.34 359.768 2276.43 359.999 2274.52L361.467 2263.02L363.533 2251.62C363.89 2249.73 364.181 2247.82 364.584 2245.93L365.913 2240.29C366.83 2236.54 367.589 2232.75 368.61 2229.03L371.815 2217.9C376.449 2203.18 381.674 2188.59 388.402 2174.65L390.806 2169.37L393.488 2164.22C395.299 2160.8 396.992 2157.32 398.878 2153.94C402.812 2147.26 406.551 2140.47 410.929 2134.06C414.994 2127.46 419.731 2121.3 424.209 2114.96L431.446 2105.84C432.668 2104.33 433.826 2102.77 435.094 2101.3L438.945 2096.92C479.69 2049.97 533.835 2014.43 593.516 1996Z" fill="#F6F6F6"></path><path d="M539.839 1827.5L566.739 1911.94C491.081 1935.32 422.683 1980.23 371.241 2039.52L366.393 2045.06C364.796 2046.92 363.312 2048.87 361.769 2050.78C358.723 2054.62 355.632 2058.44 352.642 2062.32C346.931 2070.29 341.018 2078.13 335.834 2086.45C330.339 2094.58 325.54 2103.13 320.611 2111.6C318.226 2115.88 316.051 2120.27 313.773 2124.6L310.402 2131.13L307.333 2137.8C298.865 2155.48 292.16 2173.93 286.329 2192.6L282.277 2206.7C280.991 2211.42 279.985 2216.21 278.84 2220.96L277.181 2228.11C276.673 2230.5 276.282 2232.91 275.83 2235.31L273.24 2249.74L271.358 2264.28C271.067 2266.7 270.701 2269.12 270.477 2271.55L269.905 2278.84C269.556 2283.71 269.092 2288.57 268.863 2293.44L268.48 2308.06L268.394 2311.72L268.351 2313.55L268.349 2315.2V2321.76V2334.88V2361.11V2466.05V2675.93H178.692V2466.05V2361.11V2334.88V2321.76V2315.2L178.694 2313.53L178.737 2311.32L178.831 2306.91L179.306 2289.26C179.584 2283.37 180.115 2277.49 180.546 2271.61L181.26 2262.79C181.534 2259.85 181.956 2256.92 182.307 2253.99L184.604 2236.41L187.719 2218.93C188.267 2216.02 188.761 2213.1 189.375 2210.21L191.364 2201.55C192.74 2195.79 193.991 2189.99 195.544 2184.27L200.446 2167.18C207.48 2144.55 215.674 2122.21 225.889 2100.79L229.626 2092.72L233.687 2084.8C236.435 2079.55 239.096 2074.24 241.982 2069.06C247.913 2058.79 253.776 2048.47 260.393 2038.62C266.701 2028.56 273.794 2019.05 280.745 2009.44C284.354 2004.73 288.078 2000.11 291.771 1995.47C293.639 1993.16 295.45 1990.81 297.377 1988.56L303.225 1981.85L309.101 1975.16C311.066 1972.93 313.012 1970.69 315.096 1968.58L327.467 1955.76C329.507 1953.61 331.677 1951.58 333.833 1949.54L340.314 1943.42L346.822 1937.33C349.007 1935.32 351.3 1933.43 353.541 1931.48C358.059 1927.61 362.557 1923.72 367.14 1919.93L381.229 1908.97C385.886 1905.27 390.816 1901.92 395.675 1898.47C400.579 1895.09 405.363 1891.54 410.447 1888.42L425.57 1878.86C430.671 1875.77 435.903 1872.89 441.085 1869.93L448.894 1865.54L456.876 1861.47C462.219 1858.79 467.51 1856.01 472.932 1853.49C483.836 1848.57 494.714 1843.59 505.948 1839.41C517.04 1834.9 528.468 1831.27 539.839 1827.5Z" fill="#F3F3F3"></path><path d="M486.163 1659L513.063 1743.44C499.702 1747.83 486.304 1752.15 473.272 1757.42C460.097 1762.35 447.31 1768.15 434.528 1773.96C428.169 1776.92 421.948 1780.16 415.683 1783.3L406.325 1788.1L397.157 1793.23C391.075 1796.69 384.947 1800.1 378.964 1803.72C373.028 1807.41 367.112 1811.15 361.225 1814.92C355.277 1818.61 349.643 1822.73 343.898 1826.71C338.199 1830.74 332.437 1834.7 326.964 1839.02C321.433 1843.27 315.929 1847.56 310.454 1851.88C305.077 1856.31 299.794 1860.86 294.504 1865.4C291.876 1867.69 289.2 1869.92 286.636 1872.28L278.998 1879.4L271.404 1886.57C268.878 1888.97 266.347 1891.36 263.944 1893.88C259.078 1898.85 254.243 1903.86 249.442 1908.89C247.01 1911.38 244.719 1914 242.412 1916.6L235.517 1924.44L228.674 1932.31C226.418 1934.96 224.281 1937.7 222.092 1940.4C217.755 1945.84 213.401 1951.27 209.176 1956.79C200.992 1968.04 192.725 1979.23 185.298 1991C177.564 2002.57 170.641 2014.65 163.715 2026.72C160.332 2032.8 157.186 2039.01 153.971 2045.18L149.221 2054.48L144.818 2063.94C132.863 2089.1 123.188 2115.3 114.957 2141.88C112.998 2148.56 111.079 2155.25 109.208 2161.95C107.391 2168.66 105.894 2175.46 104.289 2182.22L101.97 2192.39C101.251 2195.79 100.658 2199.21 100.012 2202.62C98.7547 2209.45 97.529 2216.29 96.3729 2223.14C95.4252 2230 94.5206 2236.88 93.6611 2243.76C93.2501 2247.19 92.7715 2250.63 92.4469 2254.08L91.5949 2264.41C91.0787 2271.3 90.4818 2278.21 90.1552 2285.1C89.9225 2291.98 89.7329 2298.87 89.5884 2305.76L89.4872 2310.93L89.442 2313.51L89.4402 2315.2V2321.76V2334.88V2361.11V2466.05V2675.92H-0.216854V2466.05V2361.11V2334.87V2321.76V2315.2L-0.215022 2313.49L-0.169889 2310.52L-0.0629006 2304.6C0.0947482 2296.7 0.316117 2288.8 0.595756 2280.91C0.969234 2273 1.6337 2265.08 2.23426 2257.18L3.22695 2245.32C3.6023 2241.37 4.13734 2237.41 4.60841 2233.47C5.58808 2225.57 6.63155 2217.68 7.73697 2209.8C9.04883 2201.93 10.4508 2194.08 11.9015 2186.24C12.6428 2182.32 13.3372 2178.39 14.1611 2174.49L16.8111 2162.81C18.6447 2155.03 20.3901 2147.23 22.4714 2139.52C24.609 2131.82 26.8086 2124.13 29.0701 2116.46C38.5046 2085.92 49.6677 2055.83 63.37 2026.93L68.4411 2016.06L73.8817 2005.38C77.5658 1998.29 81.1974 1991.16 85.0805 1984.18C93.0079 1970.31 100.995 1956.46 109.852 1943.17C118.401 1929.67 127.848 1916.79 137.274 1903.9C142.118 1897.56 147.102 1891.33 152.087 1885.09C154.6 1881.99 157.062 1878.85 159.648 1875.81L167.491 1866.76L175.408 1857.78C178.058 1854.79 180.696 1851.8 183.48 1848.93C188.98 1843.14 194.53 1837.4 200.121 1831.7C202.885 1828.82 205.785 1826.07 208.679 1823.31L217.389 1815.08L226.163 1806.91C229.108 1804.21 232.17 1801.64 235.185 1799.02C241.25 1793.8 247.32 1788.59 253.496 1783.51C259.77 1778.54 266.087 1773.62 272.44 1768.75C278.735 1763.8 285.33 1759.24 291.876 1754.61C298.466 1750.04 304.954 1745.33 311.768 1741.08C318.523 1736.74 325.315 1732.46 332.137 1728.23C339.006 1724.07 346.03 1720.14 353.021 1716.17L363.556 1710.3L374.295 1704.78C381.486 1701.15 388.639 1697.46 395.941 1694.05C410.614 1687.36 425.316 1680.73 440.441 1675.05C455.425 1669.01 470.802 1664.01 486.163 1659Z" fill="#F1F1F1"></path></g><defs><clipPath id="clip0_247_14"><rect width="2132" height="3706" fill="white" transform="matrix(-1 0 0 -1 2132 3515)"></rect></clipPath></defs></svg>